<svg width="35" height="37" viewBox="0 0 35 37" fill="none" xmlns="http://www.w3.org/2000/svg">
<path d="M12.5667 15.4167V1.85C12.5667 0.801546 11.7651 0 10.7167 0H4.55001C3.50156 0 2.70001 0.801546 2.70001 1.85V15.4167C2.70001 16.4651 3.50156 17.2667 4.55001 17.2667H10.7167C11.7651 17.2667 12.5667 16.4651 12.5667 15.4167ZM11.3333 13.5667H3.93335V3.7H11.3333V13.5667ZM4.55001 1.23333H10.7167C11.0867 1.23333 11.3333 1.47994 11.3333 1.85V2.46667H3.93335V1.85C3.93335 1.47994 4.17995 1.23333 4.55001 1.23333ZM3.93335 15.4167V14.8H11.3333V15.4167C11.3333 15.7867 11.0867 16.0333 10.7167 16.0333H4.55001C4.17995 16.0333 3.93335 15.7867 3.93335 15.4167Z" fill="#95E1D3"/>
<path d="M10.4701 8.63334L5.78333 4.87161V12.3951L10.4701 8.63334ZM7.01666 7.46173L8.4966 8.63334L7.01666 9.80495V7.46173Z" fill="#95E1D3"/>
<path d="M16.2667 10.4833C16.2667 6.41327 19.5966 3.08333 23.6667 3.08333C25.3932 3.08333 27.1201 3.7 28.4765 4.80988L27.1201 6.16667C24.7151 4.25494 21.2617 4.625 19.35 7.02994C18.5484 8.01667 18.1167 9.25 18.1167 10.4833H19.35C19.35 8.07839 21.2617 6.16667 23.6667 6.16667C24.5917 6.16667 25.5167 6.475 26.2568 7.02994L24.9 8.38673C24.5299 8.14012 24.0984 8.01667 23.6667 8.01667C22.3099 8.01667 21.2 9.12655 21.2 10.4833H22.4333C22.4333 9.80494 22.9883 9.25 23.6667 9.25C23.7901 9.25 23.8515 9.25 23.975 9.31173L23.2349 10.0515L24.0984 10.9151L24.8383 10.175C24.8383 10.2985 24.9 10.3599 24.9 10.4833C24.9 11.1617 24.3451 11.7167 23.6667 11.7167V12.95C25.0234 12.95 26.1333 11.8401 26.1333 10.4833C26.1333 10.0515 26.0099 9.62006 25.7633 9.25L27.1201 7.89321C28.5383 9.80494 28.1682 12.5182 26.2568 13.9367C25.5167 14.4917 24.5917 14.8 23.6667 14.8V16.0333C26.75 16.0333 29.2167 13.5667 29.2167 10.4833C29.2167 9.25 28.7849 8.01667 27.9833 7.02994L29.2784 5.73488C31.9299 8.81821 31.5599 13.5049 28.4151 16.1568C27.1201 17.2667 25.3932 17.8833 23.6667 17.8833V19.1167C28.4151 19.1167 32.3 15.2932 32.3 10.4833C32.3 8.38673 31.5599 6.41327 30.2034 4.80988L31.3133 3.7H34.15V2.46667H31.6833V0H30.45V2.83673L29.3401 3.94661C25.7015 0.863273 20.275 1.23333 17.1299 4.80988C15.7734 6.41327 15.0333 8.38673 15.0333 10.4833H16.2667Z" fill="#95E1D3"/>
<path d="M29.2166 22.8167H23.7901L12.0734 18.5H10.7166C9.66818 18.5 8.86664 19.3015 8.86664 20.35V32.6833C8.86664 33.7318 9.66818 34.5333 10.7166 34.5333H12.0734L23.7901 29.6H25.5166V35.15C25.5166 36.1985 26.3182 37 27.3666 37C28.4151 37 29.2166 36.1985 29.2166 35.15V29.6C30.2651 29.6 31.0666 28.7985 31.0666 27.75V24.6667C31.0666 23.6182 30.2651 22.8167 29.2166 22.8167ZM12.5666 19.9799L23.05 23.8651V28.5515L12.5666 32.9917V19.9799ZM10.1 32.6833V20.35C10.1 19.9799 10.3466 19.7333 10.7166 19.7333H11.3333V33.3H10.7166C10.3466 33.3 10.1 33.0534 10.1 32.6833ZM27.9833 35.15C27.9833 35.5201 27.7367 35.7667 27.3666 35.7667C26.9966 35.7667 26.75 35.5201 26.75 35.15V29.6H27.9833V35.15ZM29.8333 27.75C29.8333 28.1201 29.5867 28.3667 29.2166 28.3667H24.2833V24.05H29.2166C29.5867 24.05 29.8333 24.2966 29.8333 24.6667V27.75Z" fill="#95E1D3"/>
<path d="M5.16669 25.2833H7.63335V26.5167H5.16669V25.2833Z" fill="#95E1D3"/>
<path d="M5.35638 20.7953L6.22839 19.923L8.06002 21.7547L7.18772 22.6267L5.35638 20.7953Z" fill="#95E1D3"/>
<path d="M5.35638 31.0047L7.18772 29.173L8.05972 30.0453L6.22839 31.8767L5.35638 31.0047Z" fill="#95E1D3"/>
<path d="M15.0333 11.7784V12.3951C15.0333 16.0951 18.0549 19.1167 21.7549 19.1167H22.4333V11.7167H15.65L15.0333 11.7784ZM21.2 12.95V17.8833C18.6099 17.6367 16.575 15.5401 16.3284 12.95H21.2Z" fill="#95E1D3"/>
<path d="M13.8 1.85001H17.5V3.08334H13.8V1.85001Z" fill="#95E1D3"/>
<path d="M33.5333 12.95V24.6667C33.5333 25.0367 33.2867 25.2833 32.9167 25.2833H32.3V26.5167H32.9167C33.9651 26.5167 34.7667 25.7151 34.7667 24.6667V12.95H33.5333Z" fill="#95E1D3"/>
<path d="M1.46667 24.6667V12.95H0.233337V24.6667C0.233337 25.7151 1.03488 26.5167 2.08334 26.5167H3.93334V25.2833H2.08334C1.71328 25.2833 1.46667 25.0367 1.46667 24.6667Z" fill="#95E1D3"/>
</svg>
